<mxfile host="app.diagrams.net" modified="2022-02-07T09:59:25.236Z" agent="5.0 (Windows NT 10.0; Win64; x64) AppleWebKit/537.36 (KHTML, like Gecko) Chrome/98.0.4758.82 Safari/537.36" etag="PxpZPMUpNaPp-cWXyV9M" version="16.5.3" type="github">
  <diagram id="tKR9JdSKPvEkZK_Wvz4E" name="Page-1">
    <mxGraphModel dx="1022" dy="529" grid="1" gridSize="10" guides="1" tooltips="1" connect="1" arrows="1" fold="1" page="1" pageScale="1" pageWidth="827" pageHeight="1169" math="0" shadow="0">
      <root>
        <mxCell id="0" />
        <mxCell id="1" parent="0" />
      </root>
    </mxGraphModel>
  </diagram>
</mxfile>
